<svg width="243" height="166" viewBox="0 0 243 166" fill="none" xmlns="http://www.w3.org/2000/svg">
<rect x="0.5" y="0.5" width="237" height="165" rx="4.5" stroke="#9747FF" stroke-dasharray="10 5"/>
<path fill-rule="evenodd" clip-rule="evenodd" d="M27 23.5C26.6022 23.5 26.2206 23.658 25.9393 23.9393C25.658 24.2206 25.5 24.6022 25.5 25V39C25.5 39.3978 25.658 39.7794 25.9393 40.0607C26.2206 40.342 26.6022 40.5 27 40.5H37C37.3978 40.5 37.7794 40.342 38.0607 40.0607C38.342 39.7794 38.5 39.3978 38.5 39V29.4141C38.4999 29.2815 38.4473 29.1543 38.3535 29.0606L32.9394 23.6466C32.8457 23.5528 32.7186 23.5001 32.586 23.5H27ZM25.2322 23.2322C25.7011 22.7634 26.337 22.5 27 22.5H32.586C32.9838 22.5001 33.3653 22.6582 33.6466 22.9394M33.6466 22.9394L39.0605 28.3534C39.3418 28.6346 39.4999 29.0161 39.5 29.4139V39C39.5 39.663 39.2366 40.2989 38.7678 40.7678C38.2989 41.2366 37.663 41.5 37 41.5H27C26.337 41.5 25.7011 41.2366 25.2322 40.7678C24.7634 40.2989 24.5 39.663 24.5 39V25C24.5 24.337 24.7634 23.7011 25.2322 23.2322" fill="#884DFF"/>
<path fill-rule="evenodd" clip-rule="evenodd" d="M29.9725 28C28.8835 28 28 28.8787 28 29.9617C28 30.5741 28.2826 31.1212 28.7248 31.4809C28.2826 31.8406 28 32.3876 28 33C28 33.6124 28.2825 34.1594 28.7247 34.5191C28.2825 34.8789 28 35.4259 28 36.0382C28 37.1213 28.8835 38 29.9725 38C31.0614 38 31.9449 37.1213 31.9449 36.0382V34.6399C32.2558 34.8434 32.6279 34.9618 33.0275 34.9618C34.1164 34.9618 35 34.083 35 33C35 32.3876 34.7175 31.8406 34.2753 31.4809C34.7175 31.1212 35 30.5741 35 29.9617C35 28.8787 34.1164 28 33.0275 28H29.9725ZM28.89 29.9617C28.89 29.3676 29.3751 28.8852 29.9725 28.8852H31.0549V31.0383H29.9725C29.3751 31.0383 28.89 30.5559 28.89 29.9617ZM34.11 29.9617C34.11 30.5559 33.6249 31.0383 33.0275 31.0383H31.9451V28.8852H33.0275C33.6249 28.8852 34.11 29.3676 34.11 29.9617ZM28.89 33C28.89 32.4059 29.3751 31.9235 29.9725 31.9235H31.0549V34.0765H29.9611C29.3689 34.0705 28.89 33.5904 28.89 33ZM31.9451 33C31.9451 32.4059 32.4301 31.9235 33.0275 31.9235C33.6249 31.9235 34.11 32.4059 34.11 33C34.11 33.5942 33.6249 34.0767 33.0275 34.0767C32.4301 34.0767 31.9451 33.5942 31.9451 33ZM28.89 36.0382C28.89 35.4479 29.3689 34.9678 29.9611 34.9618L29.9725 34.9618H31.0549V36.0382C31.0549 36.6324 30.5698 37.1149 29.9725 37.1149C29.3751 37.1149 28.89 36.6324 28.89 36.0382Z" fill="#884DFF"/>
<path fill-rule="evenodd" clip-rule="evenodd" d="M56 23.5C55.6022 23.5 55.2206 23.658 54.9393 23.9393C54.658 24.2206 54.5 24.6022 54.5 25V39C54.5 39.3978 54.658 39.7794 54.9393 40.0607C55.2206 40.342 55.6022 40.5 56 40.5H66C66.3978 40.5 66.7794 40.342 67.0607 40.0607C67.342 39.7794 67.5 39.3978 67.5 39V29.4141C67.4999 29.2815 67.4473 29.1543 67.3535 29.0606L61.9394 23.6466C61.8457 23.5528 61.7186 23.5001 61.586 23.5H56ZM54.2322 23.2322C54.7011 22.7634 55.337 22.5 56 22.5H61.586C61.9838 22.5001 62.3653 22.6582 62.6466 22.9394M62.6466 22.9394L68.0605 28.3534C68.3418 28.6346 68.4999 29.0161 68.5 29.4139V39C68.5 39.663 68.2366 40.2989 67.7678 40.7678C67.2989 41.2366 66.663 41.5 66 41.5H56C55.337 41.5 54.7011 41.2366 54.2322 40.7678C53.7634 40.2989 53.5 39.663 53.5 39V25C53.5 24.337 53.7634 23.7011 54.2322 23.2322" fill="#3F82EF"/>
<path d="M59.2687 32.102C59.2687 32.278 59.2367 32.448 59.1727 32.612C59.1127 32.776 59.0207 32.922 58.8967 33.05C58.7727 33.178 58.6187 33.282 58.4347 33.362C58.2547 33.438 58.0467 33.476 57.8107 33.476H57.1687V35H56.1187V30.728H57.8107C58.0467 30.728 58.2547 30.768 58.4347 30.848C58.6187 30.924 58.7727 31.026 58.8967 31.154C59.0207 31.282 59.1127 31.428 59.1727 31.592C59.2367 31.756 59.2687 31.926 59.2687 32.102ZM58.2187 32.102C58.2187 31.99 58.1787 31.89 58.0987 31.802C58.0187 31.714 57.9067 31.67 57.7627 31.67H57.1687V32.534H57.7627C57.9067 32.534 58.0187 32.49 58.0987 32.402C58.1787 32.314 58.2187 32.214 58.2187 32.102Z" fill="#3F82EF"/>
<path d="M62.4484 33.692C62.4484 33.908 62.4044 34.1 62.3164 34.268C62.2284 34.436 62.1084 34.578 61.9564 34.694C61.8084 34.806 61.6344 34.892 61.4344 34.952C61.2344 35.008 61.0224 35.036 60.7984 35.036C60.4704 35.036 60.1724 34.998 59.9044 34.922C59.6364 34.842 59.3944 34.692 59.1784 34.472L59.8504 33.8C59.9624 33.912 60.1064 33.99 60.2824 34.034C60.4584 34.078 60.6324 34.1 60.8044 34.1C61.2124 34.1 61.4164 33.972 61.4164 33.716C61.4164 33.608 61.3884 33.524 61.3324 33.464C61.2724 33.404 61.1784 33.366 61.0504 33.35L60.5344 33.278C60.1544 33.222 59.8684 33.096 59.6764 32.9C59.4804 32.7 59.3824 32.414 59.3824 32.042C59.3824 31.846 59.4184 31.666 59.4904 31.502C59.5624 31.338 59.6644 31.196 59.7964 31.076C59.9324 30.956 60.0964 30.862 60.2884 30.794C60.4804 30.726 60.6984 30.692 60.9424 30.692C61.2504 30.692 61.5204 30.732 61.7524 30.812C61.9884 30.888 62.1984 31.018 62.3824 31.202L61.7224 31.862C61.6544 31.794 61.5824 31.744 61.5064 31.712C61.4304 31.676 61.3564 31.65 61.2844 31.634C61.2124 31.618 61.1444 31.61 61.0804 31.61C61.0164 31.61 60.9604 31.61 60.9124 31.61C60.8204 31.61 60.7424 31.622 60.6784 31.646C60.6144 31.67 60.5604 31.702 60.5164 31.742C60.4764 31.778 60.4464 31.82 60.4264 31.868C60.4064 31.912 60.3964 31.958 60.3964 32.006C60.3964 32.034 60.4024 32.066 60.4144 32.102C60.4264 32.138 60.4484 32.172 60.4804 32.204C60.5084 32.232 60.5444 32.258 60.5884 32.282C60.6364 32.306 60.6984 32.322 60.7744 32.33L61.2904 32.402C61.6664 32.454 61.9464 32.572 62.1304 32.756C62.2464 32.868 62.3284 33.002 62.3764 33.158C62.4244 33.314 62.4484 33.492 62.4484 33.692Z" fill="#3F82EF"/>
<path d="M66.0171 32.864C66.0171 33.032 66.0171 33.194 66.0171 33.35C66.0171 33.502 66.0051 33.648 65.9811 33.788C65.9571 33.928 65.9131 34.064 65.8491 34.196C65.7891 34.328 65.6971 34.456 65.5731 34.58C65.4251 34.728 65.2511 34.836 65.0511 34.904C64.8551 34.968 64.6451 35 64.4211 35H62.8371V30.728H64.4211C64.6451 30.728 64.8551 30.762 65.0511 30.83C65.2511 30.894 65.4251 31 65.5731 31.148C65.6971 31.272 65.7891 31.4 65.8491 31.532C65.9131 31.664 65.9571 31.8 65.9811 31.94C66.0051 32.08 66.0171 32.228 66.0171 32.384C66.0171 32.536 66.0171 32.696 66.0171 32.864ZM64.9671 32.864C64.9671 32.684 64.9651 32.538 64.9611 32.426C64.9571 32.314 64.9511 32.226 64.9431 32.162C64.9351 32.094 64.9231 32.042 64.9071 32.006C64.8911 31.966 64.8731 31.932 64.8531 31.904C64.8051 31.832 64.7411 31.774 64.6611 31.73C64.5851 31.686 64.4811 31.664 64.3491 31.664H63.8871V34.064H64.3491C64.4811 34.064 64.5851 34.042 64.6611 33.998C64.7411 33.954 64.8051 33.896 64.8531 33.824C64.8731 33.792 64.8911 33.76 64.9071 33.728C64.9231 33.692 64.9351 33.64 64.9431 33.572C64.9511 33.504 64.9571 33.414 64.9611 33.302C64.9651 33.19 64.9671 33.044 64.9671 32.864Z" fill="#3F82EF"/>
<path fill-rule="evenodd" clip-rule="evenodd" d="M85 23.5C84.6022 23.5 84.2206 23.658 83.9393 23.9393C83.658 24.2206 83.5 24.6022 83.5 25V39C83.5 39.3978 83.658 39.7794 83.9393 40.0607C84.2206 40.342 84.6022 40.5 85 40.5H95C95.3978 40.5 95.7794 40.342 96.0607 40.0607C96.342 39.7794 96.5 39.3978 96.5 39V29.4141C96.4999 29.2815 96.4473 29.1543 96.3535 29.0606L90.9394 23.6466C90.8457 23.5528 90.7186 23.5001 90.586 23.5H85ZM83.2322 23.2322C83.7011 22.7634 84.337 22.5 85 22.5H90.586C90.9838 22.5001 91.3653 22.6582 91.6466 22.9394M91.6466 22.9394L97.0605 28.3534C97.3418 28.6346 97.4999 29.0161 97.5 29.4139V39C97.5 39.663 97.2366 40.2989 96.7678 40.7678C96.2989 41.2366 95.663 41.5 95 41.5H85C84.337 41.5 83.7011 41.2366 83.2322 40.7678C82.7634 40.2989 82.5 39.663 82.5 39V25C82.5 24.337 82.7634 23.7011 83.2322 23.2322" fill="#EB8909"/>
<path d="M89.902 35L89.704 34.364H88.39L88.18 35H87.082L88.636 30.728H89.446L91 35H89.902ZM89.068 32.348L88.684 33.488H89.428L89.068 32.348Z" fill="#EB8909"/>
<path d="M91.434 35V30.728H92.484V35H91.434Z" fill="#EB8909"/>
<path fill-rule="evenodd" clip-rule="evenodd" d="M114 23.5C113.602 23.5 113.221 23.658 112.939 23.9393C112.658 24.2206 112.5 24.6022 112.5 25V39C112.5 39.3978 112.658 39.7794 112.939 40.0607C113.221 40.342 113.602 40.5 114 40.5H124C124.398 40.5 124.779 40.342 125.061 40.0607C125.342 39.7794 125.5 39.3978 125.5 39V29.4141C125.5 29.2815 125.447 29.1543 125.354 29.0606L119.939 23.6466C119.846 23.5528 119.719 23.5001 119.586 23.5H114ZM112.232 23.2322C112.701 22.7634 113.337 22.5 114 22.5H119.586C119.984 22.5001 120.365 22.6582 120.647 22.9394M120.647 22.9394L126.061 28.3534C126.342 28.6346 126.5 29.0161 126.5 29.4139V39C126.5 39.663 126.237 40.2989 125.768 40.7678C125.299 41.2366 124.663 41.5 124 41.5H114C113.337 41.5 112.701 41.2366 112.232 40.7678C111.763 40.2989 111.5 39.663 111.5 39V25C111.5 24.337 111.763 23.7011 112.232 23.2322" fill="#FF3366"/>
<path d="M116.52 35V30.728H117.57V35H116.52Z" fill="#FF3366"/>
<path d="M121.616 32.864C121.616 33.032 121.616 33.194 121.616 33.35C121.616 33.502 121.604 33.648 121.58 33.788C121.556 33.928 121.512 34.064 121.448 34.196C121.388 34.328 121.296 34.456 121.172 34.58C121.024 34.728 120.85 34.836 120.65 34.904C120.454 34.968 120.244 35 120.02 35H118.436V30.728H120.02C120.244 30.728 120.454 30.762 120.65 30.83C120.85 30.894 121.024 31 121.172 31.148C121.296 31.272 121.388 31.4 121.448 31.532C121.512 31.664 121.556 31.8 121.58 31.94C121.604 32.08 121.616 32.228 121.616 32.384C121.616 32.536 121.616 32.696 121.616 32.864ZM120.566 32.864C120.566 32.684 120.564 32.538 120.56 32.426C120.556 32.314 120.55 32.226 120.542 32.162C120.534 32.094 120.522 32.042 120.506 32.006C120.49 31.966 120.472 31.932 120.452 31.904C120.404 31.832 120.34 31.774 120.26 31.73C120.184 31.686 120.08 31.664 119.948 31.664H119.486V34.064H119.948C120.08 34.064 120.184 34.042 120.26 33.998C120.34 33.954 120.404 33.896 120.452 33.824C120.472 33.792 120.49 33.76 120.506 33.728C120.522 33.692 120.534 33.64 120.542 33.572C120.55 33.504 120.556 33.414 120.56 33.302C120.564 33.19 120.566 33.044 120.566 32.864Z" fill="#FF3366"/>
<path fill-rule="evenodd" clip-rule="evenodd" d="M143 23.5C142.602 23.5 142.221 23.658 141.939 23.9393C141.658 24.2206 141.5 24.6022 141.5 25V39C141.5 39.3978 141.658 39.7794 141.939 40.0607C142.221 40.342 142.602 40.5 143 40.5H153C153.398 40.5 153.779 40.342 154.061 40.0607C154.342 39.7794 154.5 39.3978 154.5 39V29.4141C154.5 29.2815 154.447 29.1543 154.354 29.0606L148.939 23.6466C148.846 23.5528 148.719 23.5001 148.586 23.5H143ZM141.232 23.2322C141.701 22.7634 142.337 22.5 143 22.5H148.586C148.984 22.5001 149.365 22.6582 149.647 22.9394M149.647 22.9394L155.061 28.3534C155.342 28.6346 155.5 29.0161 155.5 29.4139V39C155.5 39.663 155.237 40.2989 154.768 40.7678C154.299 41.2366 153.663 41.5 153 41.5H143C142.337 41.5 141.701 41.2366 141.232 40.7678C140.763 40.2989 140.5 39.663 140.5 39V25C140.5 24.337 140.763 23.7011 141.232 23.2322" fill="#884DFF"/>
<path d="M147.035 35L146.837 34.364H145.523L145.313 35H144.215L145.769 30.728H146.579L148.133 35H147.035ZM146.201 32.348L145.817 33.488H146.561L146.201 32.348Z" fill="#884DFF"/>
<path d="M148.567 35V30.728H151.471V31.664H149.617V32.378H151.201V33.314H149.617V34.064H151.471V35H148.567Z" fill="#884DFF"/>
<path fill-rule="evenodd" clip-rule="evenodd" d="M172 23.5C171.602 23.5 171.221 23.658 170.939 23.9393C170.658 24.2206 170.5 24.6022 170.5 25V39C170.5 39.3978 170.658 39.7794 170.939 40.0607C171.221 40.342 171.602 40.5 172 40.5H182C182.398 40.5 182.779 40.342 183.061 40.0607C183.342 39.7794 183.5 39.3978 183.5 39V29.4141C183.5 29.2815 183.447 29.1543 183.354 29.0606L177.939 23.6466C177.846 23.5528 177.719 23.5001 177.586 23.5H172ZM170.232 23.2322C170.701 22.7634 171.337 22.5 172 22.5H177.586C177.984 22.5001 178.365 22.6582 178.647 22.9394M178.647 22.9394L184.061 28.3534C184.342 28.6346 184.5 29.0161 184.5 29.4139V39C184.5 39.663 184.237 40.2989 183.768 40.7678C183.299 41.2366 182.663 41.5 182 41.5H172C171.337 41.5 170.701 41.2366 170.232 40.7678C169.763 40.2989 169.5 39.663 169.5 39V25C169.5 24.337 169.763 23.7011 170.232 23.2322" fill="#EB8909"/>
<path fill-rule="evenodd" clip-rule="evenodd" d="M173.286 32.1815L177 36.4375L180.714 32.1815L179.272 30.2586L177 30.0062L174.728 30.2586L173.286 32.1815ZM174.188 29.3125L172 32.2292L177 37.9583L182 32.2292L179.812 29.3125L177 29L174.188 29.3125Z" fill="#EB8909"/>
<path fill-rule="evenodd" clip-rule="evenodd" d="M201 23.5C200.602 23.5 200.221 23.658 199.939 23.9393C199.658 24.2206 199.5 24.6022 199.5 25V39C199.5 39.3978 199.658 39.7794 199.939 40.0607C200.221 40.342 200.602 40.5 201 40.5H211C211.398 40.5 211.779 40.342 212.061 40.0607C212.342 39.7794 212.5 39.3978 212.5 39V29.4141C212.5 29.2815 212.447 29.1543 212.354 29.0606L206.939 23.6466C206.846 23.5528 206.719 23.5001 206.586 23.5H201ZM199.232 23.2322C199.701 22.7634 200.337 22.5 201 22.5H206.586C206.984 22.5001 207.365 22.6582 207.647 22.9394M207.647 22.9394L213.061 28.3534C213.342 28.6346 213.5 29.0161 213.5 29.4139V39C213.5 39.663 213.237 40.2989 212.768 40.7678C212.299 41.2366 211.663 41.5 211 41.5H201C200.337 41.5 199.701 41.2366 199.232 40.7678C198.763 40.2989 198.5 39.663 198.5 39V25C198.5 24.337 198.763 23.7011 199.232 23.2322" fill="#3F82EF"/>
<path fill-rule="evenodd" clip-rule="evenodd" d="M202.94 32.9392L199.5 36.3787V37.1716C199.5 37.4477 199.276 37.6716 199 37.6716C198.724 37.6716 198.5 37.4477 198.5 37.1716V36.1716C198.5 36.039 198.553 35.9118 198.646 35.818L202.232 32.232C202.701 31.7633 203.337 31.5 204 31.5C204.663 31.5 205.299 31.7633 205.767 32.232L208 34.4645L209.232 33.232C209.701 32.7633 210.337 32.5 211 32.5C211.663 32.5 212.299 32.7633 212.767 33.232L213.354 33.818C213.447 33.9118 213.5 34.039 213.5 34.1716V35.1716C213.5 35.4477 213.276 35.6716 213 35.6716C212.724 35.6716 212.5 35.4477 212.5 35.1716V34.3787L212.06 33.9392C211.779 33.658 211.398 33.5 211 33.5C210.602 33.5 210.221 33.658 209.94 33.9391L208.707 35.1716L210.354 36.818C210.549 37.0133 210.549 37.3299 210.354 37.5251C210.158 37.7204 209.842 37.7204 209.646 37.5251L205.06 32.9392C204.779 32.658 204.398 32.5 204 32.5C203.602 32.5 203.221 32.658 202.94 32.9392Z" fill="#3F82EF"/>
<path fill-rule="evenodd" clip-rule="evenodd" d="M207.5 30C207.5 29.7239 207.724 29.5 208 29.5H208.01C208.286 29.5 208.51 29.7239 208.51 30C208.51 30.2761 208.286 30.5 208.01 30.5H208C207.724 30.5 207.5 30.2761 207.5 30Z" fill="#3F82EF"/>
<path fill-rule="evenodd" clip-rule="evenodd" d="M27 57.5C26.6022 57.5 26.2206 57.658 25.9393 57.9393C25.658 58.2206 25.5 58.6022 25.5 59V73C25.5 73.3978 25.658 73.7794 25.9393 74.0607C26.2206 74.342 26.6022 74.5 27 74.5H37C37.3978 74.5 37.7794 74.342 38.0607 74.0607C38.342 73.7794 38.5 73.3978 38.5 73V63.4141C38.4999 63.2815 38.4473 63.1543 38.3535 63.0606L32.9394 57.6466C32.8457 57.5528 32.7186 57.5001 32.586 57.5H27ZM25.2322 57.2322C25.7011 56.7634 26.337 56.5 27 56.5H32.586C32.9838 56.5001 33.3653 56.6582 33.6466 56.9394M33.6466 56.9394L39.0605 62.3534C39.3418 62.6346 39.4999 63.0161 39.5 63.4139V73C39.5 73.663 39.2366 74.2989 38.7678 74.7678C38.2989 75.2366 37.663 75.5 37 75.5H27C26.337 75.5 25.7011 75.2366 25.2322 74.7678C24.7634 74.2989 24.5 73.663 24.5 73V59C24.5 58.337 24.7634 57.7011 25.2322 57.2322" fill="#299438"/>
<path fill-rule="evenodd" clip-rule="evenodd" d="M31.5 64.5795L29.5029 66.5766C29.4092 66.6704 29.282 66.7231 29.1494 66.7231H28.5001V68.3897H29.1494C29.282 68.3897 29.4092 68.4424 29.5029 68.5361L31.5 70.5332V64.5795ZM30.8878 63.7775C31.4827 63.1826 32.5 63.6038 32.5 64.4453V70.6674C32.5 71.509 31.4827 71.9301 30.8878 71.3352L28.9423 69.3897H28.4445C28.194 69.3897 27.9538 69.2902 27.7767 69.1131C27.5996 68.936 27.5001 68.6957 27.5001 68.4453V66.6675C27.5001 66.417 27.5996 66.1768 27.7767 65.9997C27.9538 65.8226 28.194 65.7231 28.4445 65.7231H28.9423L30.8878 63.7775ZM34.4749 64.3744C34.6701 64.1792 34.9867 64.1792 35.182 64.3744C35.5998 64.7923 35.9313 65.2883 36.1575 65.8343C36.3836 66.3803 36.5 66.9654 36.5 67.5564C36.5 68.1473 36.3836 68.7325 36.1575 69.2784C35.9313 69.8244 35.5998 70.3205 35.182 70.7383C34.9867 70.9336 34.6701 70.9336 34.4749 70.7383C34.2796 70.5431 34.2796 70.2265 34.4749 70.0312C34.7999 69.7062 35.0577 69.3204 35.2336 68.8958C35.4095 68.4711 35.5 68.016 35.5 67.5564C35.5 67.0968 35.4095 66.6416 35.2336 66.217C35.0577 65.7924 34.7999 65.4065 34.4749 65.0815C34.2796 64.8863 34.2796 64.5697 34.4749 64.3744ZM33.218 65.6313C33.4132 65.436 33.7298 65.436 33.9251 65.6312C34.1779 65.884 34.3785 66.1842 34.5153 66.5145C34.6522 66.8448 34.7226 67.1988 34.7226 67.5564C34.7226 67.9139 34.6522 68.268 34.5153 68.5983C34.3785 68.9286 34.1779 69.2287 33.9251 69.4815C33.7298 69.6767 33.4132 69.6767 33.218 69.4814C33.0227 69.2861 33.0228 68.9695 33.218 68.7743C33.378 68.6144 33.5049 68.4245 33.5915 68.2155C33.6781 68.0066 33.7226 67.7826 33.7226 67.5564C33.7226 67.3302 33.6781 67.1062 33.5915 66.8972C33.5049 66.6882 33.378 66.4984 33.218 66.3384C33.0228 66.1432 33.0227 65.8266 33.218 65.6313Z" fill="#299438"/>
<path fill-rule="evenodd" clip-rule="evenodd" d="M56 57.5C55.6022 57.5 55.2206 57.658 54.9393 57.9393C54.658 58.2206 54.5 58.6022 54.5 59V73C54.5 73.3978 54.658 73.7794 54.9393 74.0607C55.2206 74.342 55.6022 74.5 56 74.5H66C66.3978 74.5 66.7794 74.342 67.0607 74.0607C67.342 73.7794 67.5 73.3978 67.5 73V63.4141C67.4999 63.2815 67.4473 63.1543 67.3535 63.0606L61.9394 57.6466C61.8457 57.5528 61.7186 57.5001 61.586 57.5H56ZM54.2322 57.2322C54.7011 56.7634 55.337 56.5 56 56.5H61.586C61.9838 56.5001 62.3653 56.6582 62.6466 56.9394M62.6466 56.9394L68.0605 62.3534C68.3418 62.6346 68.4999 63.0161 68.5 63.4139V73C68.5 73.663 68.2366 74.2989 67.7678 74.7678C67.2989 75.2366 66.663 75.5 66 75.5H56C55.337 75.5 54.7011 75.2366 54.2322 74.7678C53.7634 74.2989 53.5 73.663 53.5 73V59C53.5 58.337 53.7634 57.7011 54.2322 57.2322" fill="#E72A2A"/>
<path fill-rule="evenodd" clip-rule="evenodd" d="M56.4719 63.9719C56.774 63.6697 57.1838 63.5 57.6111 63.5H61.3889C61.8162 63.5 62.226 63.6697 62.5281 63.9719C62.8303 64.274 63 64.6838 63 65.1111V65.3574L64.4466 64.5245C64.4552 64.5196 64.4638 64.5149 64.4726 64.5105C64.6335 64.4301 64.8123 64.3922 64.9919 64.4003C65.1716 64.4083 65.3462 64.4622 65.4993 64.5568C65.6523 64.6513 65.7786 64.7833 65.8662 64.9404C65.9539 65.0975 65.9999 65.2743 66 65.4542V69.2122C65.9999 69.3921 65.9539 69.5692 65.8662 69.7263C65.7786 69.8833 65.6523 70.0154 65.4993 70.1099C65.3462 70.2045 65.1716 70.2583 64.9919 70.2664C64.8123 70.2745 64.6335 70.2366 64.4726 70.1562C64.4638 70.1518 64.4552 70.1471 64.4466 70.1422L63 69.3093V69.5556C63 69.9828 62.8303 70.3926 62.5281 70.6948C62.226 70.9969 61.8162 71.1667 61.3889 71.1667H57.6111C57.1838 71.1667 56.774 70.9969 56.4719 70.6948C56.1697 70.3926 56 69.9828 56 69.5556V65.1111C56 64.6838 56.1697 64.274 56.4719 63.9719ZM63 68.1554L64.9262 69.2644C64.9328 69.2667 64.9399 69.2677 64.9469 69.2674C64.9564 69.267 64.9656 69.2642 64.9736 69.2592C64.9817 69.2542 64.9884 69.2473 64.993 69.239C64.9976 69.2307 65 69.2214 65 69.212V65.4547C65 65.4452 64.9976 65.4359 64.993 65.4277C64.9884 65.4194 64.9817 65.4125 64.9736 65.4075C64.9656 65.4025 64.9564 65.3997 64.9469 65.3992C64.9399 65.3989 64.9328 65.4 64.9262 65.4023L63 66.5113V68.1554ZM62 65.1111C62 64.949 61.9356 64.7936 61.821 64.679C61.7064 64.5644 61.551 64.5 61.3889 64.5H57.6111C57.449 64.5 57.2936 64.5644 57.179 64.679C57.0644 64.7936 57 64.949 57 65.1111V69.5556C57 69.7176 57.0644 69.8731 57.179 69.9877C57.2936 70.1023 57.449 70.1667 57.6111 70.1667H61.3889C61.551 70.1667 61.7064 70.1023 61.821 69.9877C61.9356 69.8731 62 69.7176 62 69.5556V65.1111Z" fill="#E72A2A"/>
<path fill-rule="evenodd" clip-rule="evenodd" d="M85 57.5C84.6022 57.5 84.2206 57.658 83.9393 57.9393C83.658 58.2206 83.5 58.6022 83.5 59V73C83.5 73.3978 83.658 73.7794 83.9393 74.0607C84.2206 74.342 84.6022 74.5 85 74.5H95C95.3978 74.5 95.7794 74.342 96.0607 74.0607C96.342 73.7794 96.5 73.3978 96.5 73V63.4141C96.4999 63.2815 96.4473 63.1543 96.3535 63.0606L90.9394 57.6466C90.8457 57.5528 90.7186 57.5001 90.586 57.5H85ZM83.2322 57.2322C83.7011 56.7634 84.337 56.5 85 56.5H90.586C90.9838 56.5001 91.3653 56.6582 91.6466 56.9394M91.6466 56.9394L97.0605 62.3534C97.3418 62.6346 97.4999 63.0161 97.5 63.4139V73C97.5 73.663 97.2366 74.2989 96.7678 74.7678C96.2989 75.2366 95.663 75.5 95 75.5H85C84.337 75.5 83.7011 75.2366 83.2322 74.7678C82.7634 74.2989 82.5 73.663 82.5 73V59C82.5 58.337 82.7634 57.7011 83.2322 57.2322" fill="#EB8909"/>
<path fill-rule="evenodd" clip-rule="evenodd" d="M84.5 64C84.5 63.7239 84.7239 63.5 85 63.5H95C95.2761 63.5 95.5 63.7239 95.5 64C95.5 64.2583 95.3041 64.4709 95.0528 64.4972V69.6471C95.0528 69.8965 94.9589 70.1405 94.7843 70.3242C94.6088 70.5089 94.3653 70.6176 94.1056 70.6176H91.1649L92.1513 71.6556C92.3415 71.8557 92.3334 72.1722 92.1333 72.3624C91.9331 72.5527 91.6166 72.5446 91.4264 72.3444L90 70.8435L88.5736 72.3444C88.3834 72.5446 88.0669 72.5527 87.8667 72.3624C87.6666 72.1722 87.6585 71.8557 87.8487 71.6556L88.8351 70.6176H85.8944C85.6347 70.6176 85.3912 70.5089 85.2157 70.3242C85.0411 70.1405 84.9472 69.8965 84.9472 69.6471V64.4972C84.6959 64.4709 84.5 64.2583 84.5 64ZM85.9472 64.5V69.6176H94.0528V64.5H85.9472ZM92.8536 65.6464C93.0488 65.8417 93.0488 66.1583 92.8536 66.3536L90.8536 68.3536C90.6583 68.5488 90.3417 68.5488 90.1464 68.3536L88.9859 67.193L87.8388 68.25C87.6358 68.4372 87.3195 68.4243 87.1323 68.2212C86.9452 68.0181 86.9581 67.7018 87.1612 67.5147L88.6612 66.1323C88.8584 65.9506 89.1639 65.9568 89.3536 66.1464L90.5 67.2929L92.1464 65.6464C92.3417 65.4512 92.6583 65.4512 92.8536 65.6464Z" fill="#EB8909"/>
<path fill-rule="evenodd" clip-rule="evenodd" d="M114 57.5C113.602 57.5 113.221 57.658 112.939 57.9393C112.658 58.2206 112.5 58.6022 112.5 59V73C112.5 73.3978 112.658 73.7794 112.939 74.0607C113.221 74.342 113.602 74.5 114 74.5H124C124.398 74.5 124.779 74.342 125.061 74.0607C125.342 73.7794 125.5 73.3978 125.5 73V63.4141C125.5 63.2815 125.447 63.1543 125.354 63.0606L119.939 57.6466C119.846 57.5528 119.719 57.5001 119.586 57.5H114ZM112.232 57.2322C112.701 56.7634 113.337 56.5 114 56.5H119.586C119.984 56.5001 120.365 56.6582 120.647 56.9394M120.647 56.9394L126.061 62.3534C126.342 62.6346 126.5 63.0161 126.5 63.4139V73C126.5 73.663 126.237 74.2989 125.768 74.7678C125.299 75.2366 124.663 75.5 124 75.5H114C113.337 75.5 112.701 75.2366 112.232 74.7678C111.763 74.2989 111.5 73.663 111.5 73V59C111.5 58.337 111.763 57.7011 112.232 57.2322" fill="#E72A2A"/>
<path d="M117.158 62.0025C116.671 61.9939 116.25 62.4789 116.353 62.9634C116.423 63.7037 116.9 64.3045 117.272 64.9158C117.314 65.1434 117.194 65.3651 117.186 65.5911C116.943 66.9178 116.573 68.2376 116.003 69.4553C115.297 69.78 114.499 70.1007 114.086 70.8006C113.824 71.2861 114.193 71.9415 114.734 71.9927C115.236 72.0614 115.609 71.6311 115.883 71.2706C116.17 70.8829 116.359 70.4211 116.597 70.0044C118.04 69.4232 119.558 69.0171 121.108 68.8629C121.734 69.3114 122.398 69.8404 123.202 69.8724C123.669 69.8654 124.047 69.4121 123.995 68.9516C123.965 68.5324 123.593 68.2384 123.207 68.1597C122.585 67.9722 121.918 68.0748 121.285 68.0794C120.067 67.106 118.942 65.9861 118.057 64.7046C118.122 63.9256 118.254 63.0639 117.849 62.3552C117.695 62.1316 117.434 61.9785 117.158 62.0025ZM117.182 62.7099C117.319 62.7364 117.328 62.9407 117.366 63.05C117.403 63.2726 117.399 63.4998 117.396 63.7247C117.233 63.4194 117.02 63.1004 117.058 62.7385C117.101 62.7368 117.139 62.715 117.182 62.7099ZM117.937 65.7479C118.663 66.6505 119.47 67.4818 120.35 68.2357C119.19 68.4127 118.037 68.7091 116.933 69.1089C117.356 68.0022 117.678 66.8588 117.891 65.6919C117.906 65.7106 117.922 65.7292 117.937 65.7479ZM122.466 68.7827C122.748 68.8098 123.073 68.7935 123.298 68.9875C123.319 69.1626 123.105 69.1882 122.991 69.1248C122.753 69.0453 122.517 68.9454 122.315 68.7932C122.365 68.7901 122.416 68.7836 122.466 68.7827ZM115.432 70.6242C115.298 70.8732 115.103 71.1079 114.9 71.2842C114.832 71.3937 114.647 71.1912 114.732 71.1057C114.908 70.8298 115.216 70.6835 115.489 70.5186C115.47 70.5538 115.451 70.589 115.432 70.6242Z" fill="#E72A2A"/>
<path fill-rule="evenodd" clip-rule="evenodd" d="M143 57.5C142.602 57.5 142.221 57.658 141.939 57.9393C141.658 58.2206 141.5 58.6022 141.5 59V73C141.5 73.3978 141.658 73.7794 141.939 74.0607C142.221 74.342 142.602 74.5 143 74.5H153C153.398 74.5 153.779 74.342 154.061 74.0607C154.342 73.7794 154.5 73.3978 154.5 73V63.4141C154.5 63.2815 154.447 63.1543 154.354 63.0606L148.939 57.6466C148.846 57.5528 148.719 57.5001 148.586 57.5H143ZM141.232 57.2322C141.701 56.7634 142.337 56.5 143 56.5H148.586C148.984 56.5001 149.365 56.6582 149.647 56.9394M149.647 56.9394L155.061 62.3534C155.342 62.6346 155.5 63.0161 155.5 63.4139V73C155.5 73.663 155.237 74.2989 154.768 74.7678C154.299 75.2366 153.663 75.5 153 75.5H143C142.337 75.5 141.701 75.2366 141.232 74.7678C140.763 74.2989 140.5 73.663 140.5 73V59C140.5 58.337 140.763 57.7011 141.232 57.2322" fill="#3F82EF"/>
<path fill-rule="evenodd" clip-rule="evenodd" d="M144 64.5C144 64.2239 144.224 64 144.5 64H151.5C151.776 64 152 64.2239 152 64.5C152 64.7761 151.776 65 151.5 65H144.5C144.224 65 144 64.7761 144 64.5ZM144 67.5C144 67.2239 144.224 67 144.5 67H149.5C149.776 67 150 67.2239 150 67.5C150 67.7761 149.776 68 149.5 68H144.5C144.224 68 144 67.7761 144 67.5ZM144 70.5C144 70.2239 144.224 70 144.5 70H147.5C147.776 70 148 70.2239 148 70.5C148 70.7761 147.776 71 147.5 71H144.5C144.224 71 144 70.7761 144 70.5Z" fill="#3F82EF"/>
<path fill-rule="evenodd" clip-rule="evenodd" d="M172 57.5C171.602 57.5 171.221 57.658 170.939 57.9393C170.658 58.2206 170.5 58.6022 170.5 59V73C170.5 73.3978 170.658 73.7794 170.939 74.0607C171.221 74.342 171.602 74.5 172 74.5H182C182.398 74.5 182.779 74.342 183.061 74.0607C183.342 73.7794 183.5 73.3978 183.5 73V63.4141C183.5 63.2815 183.447 63.1543 183.354 63.0606L177.939 57.6466C177.846 57.5528 177.719 57.5001 177.586 57.5H172ZM170.232 57.2322C170.701 56.7634 171.337 56.5 172 56.5H177.586C177.984 56.5001 178.365 56.6582 178.647 56.9394M178.647 56.9394L184.061 62.3534C184.342 62.6346 184.5 63.0161 184.5 63.4139V73C184.5 73.663 184.237 74.2989 183.768 74.7678C183.299 75.2366 182.663 75.5 182 75.5H172C171.337 75.5 170.701 75.2366 170.232 74.7678C169.763 74.2989 169.5 73.663 169.5 73V59C169.5 58.337 169.763 57.7011 170.232 57.2322" fill="#299438"/>
<path fill-rule="evenodd" clip-rule="evenodd" d="M171.5 65H182.5V73H171.5V65ZM172.5 66V68.5H175V66H172.5ZM176 66V68.5H181.5V66H176ZM181.5 69.5H176V72H181.5V69.5ZM175 72V69.5H172.5V72H175Z" fill="#299438"/>
<path fill-rule="evenodd" clip-rule="evenodd" d="M201 57.5C200.602 57.5 200.221 57.658 199.939 57.9393C199.658 58.2206 199.5 58.6022 199.5 59V73C199.5 73.3978 199.658 73.7794 199.939 74.0607C200.221 74.342 200.602 74.5 201 74.5H211C211.398 74.5 211.779 74.342 212.061 74.0607C212.342 73.7794 212.5 73.3978 212.5 73V63.4141C212.5 63.2815 212.447 63.1543 212.354 63.0606L206.939 57.6466C206.846 57.5528 206.719 57.5001 206.586 57.5H201ZM199.232 57.2322C199.701 56.7634 200.337 56.5 201 56.5H206.586C206.984 56.5001 207.365 56.6582 207.647 56.9394M207.647 56.9394L213.061 62.3534C213.342 62.6346 213.5 63.0161 213.5 63.4139V73C213.5 73.663 213.237 74.2989 212.768 74.7678C212.299 75.2366 211.663 75.5 211 75.5H201C200.337 75.5 199.701 75.2366 199.232 74.7678C198.763 74.2989 198.5 73.663 198.5 73V59C198.5 58.337 198.763 57.7011 199.232 57.2322" fill="#4A5568"/>
<path fill-rule="evenodd" clip-rule="evenodd" d="M207.121 63.5149C207.389 63.5819 207.552 63.8534 207.485 64.1213L205.485 72.1213C205.418 72.3892 205.147 72.552 204.879 72.4851C204.611 72.4181 204.448 72.1466 204.515 71.8787L206.515 63.8787C206.582 63.6108 206.853 63.448 207.121 63.5149ZM203.354 65.6464C203.549 65.8417 203.549 66.1583 203.354 66.3536L201.707 68L203.354 69.6464C203.549 69.8417 203.549 70.1583 203.354 70.3536C203.158 70.5488 202.842 70.5488 202.646 70.3536L200.646 68.3536C200.451 68.1583 200.451 67.8417 200.646 67.6464L202.646 65.6464C202.842 65.4512 203.158 65.4512 203.354 65.6464ZM208.646 65.6464C208.842 65.4512 209.158 65.4512 209.354 65.6464L211.354 67.6464C211.549 67.8417 211.549 68.1583 211.354 68.3536L209.354 70.3536C209.158 70.5488 208.842 70.5488 208.646 70.3536C208.451 70.1583 208.451 69.8417 208.646 69.6464L210.293 68L208.646 66.3536C208.451 66.1583 208.451 65.8417 208.646 65.6464Z" fill="#4A5568"/>
<path fill-rule="evenodd" clip-rule="evenodd" d="M27 91.5C26.6022 91.5 26.2206 91.658 25.9393 91.9393C25.658 92.2206 25.5 92.6022 25.5 93V107C25.5 107.398 25.658 107.779 25.9393 108.061C26.2206 108.342 26.6022 108.5 27 108.5H37C37.3978 108.5 37.7794 108.342 38.0607 108.061C38.342 107.779 38.5 107.398 38.5 107V97.4141C38.5 97.4141 38.5 97.4141 38.5 97.4141C38.4999 97.2815 38.4473 97.1543 38.3535 97.0606L32.9394 91.6466C32.8457 91.5528 32.7186 91.5001 32.586 91.5C32.586 91.5 32.586 91.5 32.586 91.5H27ZM25.2322 91.2322C25.7011 90.7634 26.337 90.5 27 90.5H32.586C32.9838 90.5001 33.3653 90.6582 33.6466 90.9394M33.6466 90.9394L39.0605 96.3534C39.0605 96.3534 39.0605 96.3534 39.0605 96.3534C39.3418 96.6346 39.4999 97.0161 39.5 97.4139V107C39.5 107.663 39.2366 108.299 38.7678 108.768C38.2989 109.237 37.663 109.5 37 109.5H27C26.337 109.5 25.7011 109.237 25.2322 108.768C24.7634 108.299 24.5 107.663 24.5 107V93C24.5 92.337 24.7634 91.7011 25.2322 91.2322" fill="#E72A2A"/>
<path fill-rule="evenodd" clip-rule="evenodd" d="M28.4134 98.3911C28.6751 98.1387 29.0264 98 29.389 98H34.6112C34.9738 98 35.3251 98.1387 35.5868 98.3911C35.8492 98.6441 36.0001 98.9912 36.0001 99.3571V99.7762C36.0002 99.7822 36.0002 99.7883 36.0001 99.7943V103.643C36.0001 104.009 35.8492 104.356 35.5868 104.609C35.3251 104.861 34.9738 105 34.6112 105H29.389C29.0264 105 28.6751 104.861 28.4134 104.609C28.151 104.356 28.0001 104.009 28.0001 103.643V99.7943C28 99.7883 28 99.7822 28.0001 99.7762V99.3571C28.0001 98.9912 28.151 98.6441 28.4134 98.3911ZM29.0001 100.656V103.643C29.0001 103.732 29.0365 103.821 29.1075 103.889C29.1791 103.958 29.2801 104 29.389 104H34.6112C34.7201 104 34.821 103.958 34.8927 103.889C34.9637 103.821 35.0001 103.732 35.0001 103.643V100.656L32.7538 101.967C32.5284 102.109 32.2665 102.184 32.0001 102.184C31.7337 102.184 31.4718 102.109 31.2464 101.967L29.0001 100.656ZM35.0001 99.4986L32.2414 101.108C32.2352 101.112 32.229 101.116 32.2229 101.12C32.1584 101.161 32.0809 101.184 32.0001 101.184C31.9193 101.184 31.8417 101.161 31.7773 101.12C31.7712 101.116 31.765 101.112 31.7587 101.108L29.0001 99.4986V99.3571C29.0001 99.2684 29.0365 99.1795 29.1075 99.111C29.1791 99.0419 29.2801 99 29.389 99H34.6112C34.7201 99 34.821 99.0419 34.8927 99.111C34.9637 99.1795 35.0001 99.2684 35.0001 99.3571V99.4986Z" fill="#E72A2A"/>
<path fill-rule="evenodd" clip-rule="evenodd" d="M56 91.5C55.6022 91.5 55.2206 91.658 54.9393 91.9393C54.658 92.2206 54.5 92.6022 54.5 93V107C54.5 107.398 54.658 107.779 54.9393 108.061C55.2206 108.342 55.6022 108.5 56 108.5H66C66.3978 108.5 66.7794 108.342 67.0607 108.061C67.342 107.779 67.5 107.398 67.5 107V97.4141C67.4999 97.2815 67.4473 97.1543 67.3535 97.0606L61.9394 91.6466C61.8457 91.5528 61.7186 91.5001 61.586 91.5H56ZM54.2322 91.2322C54.7011 90.7634 55.337 90.5 56 90.5H61.586C61.9838 90.5001 62.3653 90.6582 62.6466 90.9394M62.6466 90.9394L68.0605 96.3534C68.3418 96.6346 68.4999 97.0161 68.5 97.4139V107C68.5 107.663 68.2366 108.299 67.7678 108.768C67.2989 109.237 66.663 109.5 66 109.5H56C55.337 109.5 54.7011 109.237 54.2322 108.768C53.7634 108.299 53.5 107.663 53.5 107V93C53.5 92.337 53.7634 91.7011 54.2322 91.2322" fill="#3F82EF"/>
<path fill-rule="evenodd" clip-rule="evenodd" d="M60.3875 96.5528C60.5283 96.4824 60.694 96.4824 60.8347 96.5528L61.7375 97.0042C61.9845 97.1277 62.0846 97.428 61.9611 97.675C61.8376 97.922 61.5373 98.0221 61.2903 97.8986L60.6111 97.559L59.9319 97.8986C59.685 98.0221 59.3846 97.922 59.2611 97.675C59.1376 97.428 59.2377 97.1277 59.4847 97.0042L60.3875 96.5528ZM63.15 98.1306C63.2735 97.8836 63.5738 97.7835 63.8208 97.907L64.7236 98.3584C64.893 98.443 65 98.6162 65 98.8056V99.934C65 100.21 64.7761 100.434 64.5 100.434C64.2239 100.434 64 100.21 64 99.934V99.6146L63.8208 99.7042C63.5738 99.8277 63.2735 99.7276 63.15 99.4806C63.0265 99.2336 63.1266 98.9332 63.3736 98.8097L63.382 98.8056L63.3736 98.8014C63.1266 98.6779 63.0265 98.3776 63.15 98.1306ZM58.35 98.1306C58.4735 98.3776 58.3734 98.6779 58.1264 98.8014L58.118 98.8056L58.1264 98.8097C58.3734 98.9332 58.4735 99.2336 58.35 99.4806C58.2265 99.7276 57.9262 99.8277 57.6792 99.7042L57.5 99.6146V99.934C57.5 100.21 57.2761 100.434 57 100.434C56.7239 100.434 56.5 100.21 56.5 99.934V98.8056C56.5 98.6162 56.607 98.443 56.7764 98.3584L57.6792 97.907C57.9262 97.7835 58.2265 97.8836 58.35 98.1306ZM59.2611 99.9361C59.3846 99.6891 59.685 99.589 59.9319 99.7125L60.6111 100.052L61.2903 99.7125C61.5373 99.589 61.8376 99.6891 61.9611 99.9361C62.0846 100.183 61.9845 100.483 61.7375 100.607L61.1111 100.92V101.74C61.1111 102.016 60.8873 102.24 60.6111 102.24C60.335 102.24 60.1111 102.016 60.1111 101.74V100.92L59.4847 100.607C59.2377 100.483 59.1376 100.183 59.2611 99.9361ZM57 101.691C57.2761 101.691 57.5 101.915 57.5 102.191V103.01L58.1264 103.324C58.3734 103.447 58.4735 103.747 58.35 103.994C58.2265 104.241 57.9262 104.342 57.6792 104.218L56.7764 103.767C56.607 103.682 56.5 103.509 56.5 103.319V102.191C56.5 101.915 56.7239 101.691 57 101.691ZM64.5 101.691C64.7761 101.691 65 101.915 65 102.191V103.319C65 103.509 64.893 103.682 64.7236 103.767L63.8208 104.218C63.5738 104.342 63.2735 104.241 63.15 103.994C63.0265 103.747 63.1266 103.447 63.3736 103.324L64 103.01V102.191C64 101.915 64.2239 101.691 64.5 101.691ZM60.6111 103.497C60.8873 103.497 61.1111 103.72 61.1111 103.997V104.316L61.2903 104.226C61.5373 104.103 61.8376 104.203 61.9611 104.45C62.0846 104.697 61.9845 104.997 61.7375 105.121L60.8347 105.572C60.694 105.643 60.5283 105.643 60.3875 105.572L59.4847 105.121C59.2377 104.997 59.1376 104.697 59.2611 104.45C59.3846 104.203 59.685 104.103 59.9319 104.226L60.1111 104.316V103.997C60.1111 103.72 60.335 103.497 60.6111 103.497Z" fill="#3F82EF"/>
<path fill-rule="evenodd" clip-rule="evenodd" d="M85 91.5C84.6022 91.5 84.2206 91.658 83.9393 91.9393C83.658 92.2206 83.5 92.6022 83.5 93V107C83.5 107.398 83.658 107.779 83.9393 108.061C84.2206 108.342 84.6022 108.5 85 108.5H95C95.3978 108.5 95.7794 108.342 96.0607 108.061C96.342 107.779 96.5 107.398 96.5 107V97.4141C96.4999 97.2815 96.4473 97.1543 96.3535 97.0606L90.9394 91.6466C90.8457 91.5528 90.7186 91.5001 90.586 91.5H85ZM83.2322 91.2322C83.7011 90.7634 84.337 90.5 85 90.5H90.586C90.9838 90.5001 91.3653 90.6582 91.6466 90.9394M91.6466 90.9394L97.0605 96.3534C97.3418 96.6346 97.4999 97.0161 97.5 97.4139V107C97.5 107.663 97.2366 108.299 96.7678 108.768C96.2989 109.237 95.663 109.5 95 109.5H85C84.337 109.5 83.7011 109.237 83.2322 108.768C82.7634 108.299 82.5 107.663 82.5 107V93C82.5 92.337 82.7634 91.7011 83.2322 91.2322" fill="#E72A2A"/>
<path fill-rule="evenodd" clip-rule="evenodd" d="M88.2222 97.5C88.4984 97.5 88.7222 97.7239 88.7222 98V98.3889H91.2778V98C91.2778 97.7239 91.5016 97.5 91.7778 97.5C92.0539 97.5 92.2778 97.7239 92.2778 98V98.3889H93.1111C93.4795 98.3889 93.8327 98.5352 94.0932 98.7957C94.3537 99.0562 94.5 99.4094 94.5 99.7778V105.111C94.5 105.479 94.3537 105.833 94.0932 106.093C93.8327 106.354 93.4795 106.5 93.1111 106.5H86.8889C86.5205 106.5 86.1673 106.354 85.9068 106.093C85.6463 105.833 85.5 105.479 85.5 105.111V99.7778C85.5 99.4094 85.6463 99.0562 85.9068 98.7957C86.1673 98.5352 86.5205 98.3889 86.8889 98.3889H87.7222V98C87.7222 97.7239 87.9461 97.5 88.2222 97.5ZM87.7222 99.3889H86.8889C86.7857 99.3889 86.6868 99.4299 86.6139 99.5028C86.541 99.5757 86.5 99.6746 86.5 99.7778V105.111C86.5 105.214 86.541 105.313 86.6139 105.386C86.6868 105.459 86.7857 105.5 86.8889 105.5H93.1111C93.2143 105.5 93.3132 105.459 93.3861 105.386C93.459 105.313 93.5 105.214 93.5 105.111V99.7778C93.5 99.6746 93.459 99.5757 93.3861 99.5028C93.3132 99.4299 93.2143 99.3889 93.1111 99.3889H92.2778V99.7778C92.2778 100.054 92.0539 100.278 91.7778 100.278C91.5016 100.278 91.2778 100.054 91.2778 99.7778V99.3889H88.7222V99.7778C88.7222 100.054 88.4984 100.278 88.2222 100.278C87.9461 100.278 87.7222 100.054 87.7222 99.7778V99.3889ZM87.2778 101.556C87.2778 101.279 87.5016 101.056 87.7778 101.056H92.2222C92.4984 101.056 92.7222 101.279 92.7222 101.556C92.7222 101.832 92.4984 102.056 92.2222 102.056H87.7778C87.5016 102.056 87.2778 101.832 87.2778 101.556Z" fill="#E72A2A"/>
<path fill-rule="evenodd" clip-rule="evenodd" d="M114 91.5C113.602 91.5 113.221 91.658 112.939 91.9393C112.658 92.2206 112.5 92.6022 112.5 93V107C112.5 107.398 112.658 107.779 112.939 108.061C113.221 108.342 113.602 108.5 114 108.5H124C124.398 108.5 124.779 108.342 125.061 108.061C125.342 107.779 125.5 107.398 125.5 107V97.4141C125.5 97.2815 125.447 97.1543 125.354 97.0606L119.939 91.6466C119.846 91.5528 119.719 91.5001 119.586 91.5H114ZM112.232 91.2322C112.701 90.7634 113.337 90.5 114 90.5H119.586C119.984 90.5001 120.365 90.6582 120.647 90.9394M120.647 90.9394L126.061 96.3534C126.342 96.6346 126.5 97.0161 126.5 97.4139V107C126.5 107.663 126.237 108.299 125.768 108.768C125.299 109.237 124.663 109.5 124 109.5H114C113.337 109.5 112.701 109.237 112.232 108.768C111.763 108.299 111.5 107.663 111.5 107V93C111.5 92.337 111.763 91.7011 112.232 91.2322" fill="#3F82EF"/>
<path d="M115.379 103V101.37C115.379 101.297 115.368 101.238 115.344 101.195C115.321 101.148 115.293 101.113 115.259 101.09C115.229 101.063 115.196 101.045 115.159 101.035C115.123 101.025 115.091 101.02 115.064 101.02C115.038 101.02 115.006 101.025 114.969 101.035C114.933 101.045 114.898 101.063 114.864 101.09C114.834 101.113 114.808 101.148 114.784 101.195C114.761 101.238 114.749 101.297 114.749 101.37V103H113.929V99.4399H114.749V100.53C114.836 100.443 114.929 100.38 115.029 100.34C115.133 100.3 115.236 100.28 115.339 100.28C115.486 100.28 115.613 100.305 115.719 100.355C115.826 100.405 115.914 100.475 115.984 100.565C116.058 100.652 116.111 100.755 116.144 100.875C116.181 100.992 116.199 101.118 116.199 101.255V103H115.379Z" fill="#3F82EF"/>
<path d="M117.69 103C117.54 103 117.412 102.977 117.305 102.93C117.202 102.88 117.117 102.817 117.05 102.74C116.984 102.663 116.934 102.578 116.9 102.485C116.87 102.392 116.855 102.298 116.855 102.205V101.045H116.61V100.415H116.855V99.6449H117.675V100.415H118.1V101.045H117.675V102.145C117.675 102.255 117.73 102.31 117.84 102.31H118.1V103H117.69Z" fill="#3F82EF"/>
<path d="M121.572 103V101.39C121.572 101.313 121.56 101.252 121.537 101.205C121.513 101.155 121.483 101.117 121.447 101.09C121.413 101.063 121.377 101.045 121.337 101.035C121.3 101.025 121.268 101.02 121.242 101.02C121.215 101.02 121.182 101.025 121.142 101.035C121.105 101.045 121.068 101.063 121.032 101.09C120.998 101.117 120.97 101.155 120.947 101.205C120.923 101.252 120.912 101.313 120.912 101.39V103H120.092V101.39C120.092 101.313 120.08 101.252 120.057 101.205C120.033 101.155 120.003 101.117 119.967 101.09C119.933 101.063 119.897 101.045 119.857 101.035C119.82 101.025 119.788 101.02 119.762 101.02C119.735 101.02 119.702 101.025 119.662 101.035C119.625 101.045 119.588 101.063 119.552 101.09C119.518 101.117 119.49 101.155 119.467 101.205C119.443 101.252 119.432 101.313 119.432 101.39V103H118.612V100.31H119.412V100.53C119.495 100.447 119.593 100.385 119.707 100.345C119.82 100.302 119.93 100.28 120.037 100.28C120.17 100.28 120.29 100.303 120.397 100.35C120.507 100.393 120.605 100.465 120.692 100.565C120.808 100.462 120.925 100.388 121.042 100.345C121.158 100.302 121.295 100.28 121.452 100.28C121.578 100.28 121.698 100.3 121.812 100.34C121.928 100.38 122.023 100.437 122.097 100.51C122.213 100.627 122.292 100.748 122.332 100.875C122.372 101.002 122.392 101.137 122.392 101.28V103H121.572Z" fill="#3F82EF"/>
<path d="M123.797 103C123.647 103 123.518 102.977 123.412 102.93C123.308 102.88 123.223 102.817 123.157 102.74C123.09 102.663 123.04 102.578 123.007 102.485C122.977 102.392 122.962 102.298 122.962 102.205V99.4399H123.782V102.145C123.782 102.255 123.837 102.31 123.947 102.31H124.232V103H123.797Z" fill="#3F82EF"/>
<path fill-rule="evenodd" clip-rule="evenodd" d="M143 91.5C142.602 91.5 142.221 91.658 141.939 91.9393C141.658 92.2206 141.5 92.6022 141.5 93V107C141.5 107.398 141.658 107.779 141.939 108.061C142.221 108.342 142.602 108.5 143 108.5H153C153.398 108.5 153.779 108.342 154.061 108.061C154.342 107.779 154.5 107.398 154.5 107V97.4141C154.5 97.2815 154.447 97.1543 154.354 97.0606L148.939 91.6466C148.846 91.5528 148.719 91.5001 148.586 91.5H143ZM141.232 91.2322C141.701 90.7634 142.337 90.5 143 90.5H148.586C148.984 90.5001 149.365 90.6582 149.647 90.9394M149.647 90.9394L155.061 96.3534C155.342 96.6346 155.5 97.0161 155.5 97.4139V107C155.5 107.663 155.237 108.299 154.768 108.768C154.299 109.237 153.663 109.5 153 109.5H143C142.337 109.5 141.701 109.237 141.232 108.768C140.763 108.299 140.5 107.663 140.5 107V93C140.5 92.337 140.763 91.7011 141.232 91.2322" fill="#3F82EF"/>
<path fill-rule="evenodd" clip-rule="evenodd" d="M145.395 98.0329C144.725 98.3681 144.5 98.7389 144.5 99C144.5 99.2611 144.725 99.6319 145.395 99.9671C146.036 100.287 146.956 100.5 148 100.5C149.044 100.5 149.964 100.287 150.605 99.9671C151.275 99.6319 151.5 99.2611 151.5 99C151.5 98.7389 151.275 98.3681 150.605 98.0329C149.964 97.7125 149.044 97.5 148 97.5C146.956 97.5 146.036 97.7125 145.395 98.0329ZM151.5 100.6C151.358 100.697 151.207 100.784 151.052 100.862C150.245 101.265 149.165 101.5 148 101.5C146.835 101.5 145.755 101.265 144.948 100.862C144.793 100.784 144.642 100.697 144.5 100.6V101.5C144.5 101.761 144.725 102.132 145.395 102.467C146.036 102.787 146.956 103 148 103C149.044 103 149.964 102.787 150.605 102.467C151.275 102.132 151.5 101.761 151.5 101.5V100.6ZM152.5 99C152.5 98.1561 151.829 97.5269 151.052 97.1384C150.245 96.735 149.165 96.5 148 96.5C146.835 96.5 145.755 96.735 144.948 97.1384C144.171 97.5269 143.5 98.1561 143.5 99V104C143.5 104.844 144.171 105.473 144.948 105.862C145.755 106.265 146.835 106.5 148 106.5C149.165 106.5 150.245 106.265 151.052 105.862C151.829 105.473 152.5 104.844 152.5 104V99ZM151.5 103.1C151.358 103.197 151.207 103.284 151.052 103.362C150.245 103.765 149.165 104 148 104C146.835 104 145.755 103.765 144.948 103.362C144.793 103.284 144.642 103.197 144.5 103.1V104C144.5 104.261 144.725 104.632 145.395 104.967C146.036 105.287 146.956 105.5 148 105.5C149.044 105.5 149.964 105.287 150.605 104.967C151.275 104.632 151.5 104.261 151.5 104V103.1Z" fill="#3F82EF"/>
<path fill-rule="evenodd" clip-rule="evenodd" d="M172 91.5C171.602 91.5 171.221 91.658 170.939 91.9393C170.658 92.2206 170.5 92.6022 170.5 93V107C170.5 107.398 170.658 107.779 170.939 108.061C171.221 108.342 171.602 108.5 172 108.5H182C182.398 108.5 182.779 108.342 183.061 108.061C183.342 107.779 183.5 107.398 183.5 107V97.4141C183.5 97.2815 183.447 97.1543 183.354 97.0606L177.939 91.6466C177.846 91.5528 177.719 91.5001 177.586 91.5H172ZM170.232 91.2322C170.701 90.7634 171.337 90.5 172 90.5H177.586C177.984 90.5001 178.365 90.6582 178.647 90.9394M178.647 90.9394L184.061 96.3534C184.342 96.6346 184.5 97.0161 184.5 97.4139V107C184.5 107.663 184.237 108.299 183.768 108.768C183.299 109.237 182.663 109.5 182 109.5H172C171.337 109.5 170.701 109.237 170.232 108.768C169.763 108.299 169.5 107.663 169.5 107V93C169.5 92.337 169.763 91.7011 170.232 91.2322" fill="#4A5568"/>
<path fill-rule="evenodd" clip-rule="evenodd" d="M174.5 91C174.776 91 175 91.2239 175 91.5V101.5C175 101.776 174.776 102 174.5 102C174.224 102 174 101.776 174 101.5V91.5C174 91.2239 174.224 91 174.5 91Z" fill="#4A5568"/>
<path fill-rule="evenodd" clip-rule="evenodd" d="M172 93.5C172 93.2239 172.224 93 172.5 93H174.5C174.776 93 175 93.2239 175 93.5C175 93.7761 174.776 94 174.5 94H172.5C172.224 94 172 93.7761 172 93.5Z" fill="#4A5568"/>
<path fill-rule="evenodd" clip-rule="evenodd" d="M174 95.5C174 95.2239 174.224 95 174.5 95H176.5C176.776 95 177 95.2239 177 95.5C177 95.7761 176.776 96 176.5 96H174.5C174.224 96 174 95.7761 174 95.5Z" fill="#4A5568"/>
<path fill-rule="evenodd" clip-rule="evenodd" d="M172 97.5C172 97.2239 172.224 97 172.5 97H174.5C174.776 97 175 97.2239 175 97.5C175 97.7761 174.776 98 174.5 98H172.5C172.224 98 172 97.7761 172 97.5Z" fill="#4A5568"/>
<path fill-rule="evenodd" clip-rule="evenodd" d="M174 99.5C174 99.2239 174.224 99 174.5 99H176.5C176.776 99 177 99.2239 177 99.5C177 99.7761 176.776 100 176.5 100H174.5C174.224 100 174 99.7761 174 99.5Z" fill="#4A5568"/>
<path fill-rule="evenodd" clip-rule="evenodd" d="M174.9 101.2L174.5 101.5L174.1 101.2C174.194 101.074 174.343 101 174.5 101C174.657 101 174.806 101.074 174.9 101.2ZM174.5 102.386C174.417 102.516 174.331 102.659 174.25 102.805C174.1 103.075 173.982 103.33 173.928 103.53C173.908 103.603 173.9 103.654 173.899 103.687C174.038 103.8 174.253 103.875 174.5 103.875C174.747 103.875 174.962 103.8 175.102 103.687C175.1 103.654 175.092 103.603 175.072 103.53C175.018 103.33 174.9 103.075 174.75 102.805C174.669 102.659 174.583 102.516 174.5 102.386ZM176.099 103.782C176.087 103.965 176.026 104.181 175.854 104.354C175.489 104.719 174.974 104.875 174.5 104.875C174.026 104.875 173.511 104.719 173.146 104.354C172.974 104.181 172.913 103.965 172.901 103.782C172.889 103.603 172.92 103.425 172.963 103.267C173.049 102.951 173.213 102.613 173.375 102.32C173.541 102.021 173.722 101.742 173.86 101.539C173.929 101.437 173.988 101.354 174.031 101.295C174.052 101.266 174.069 101.242 174.08 101.226L174.094 101.208L174.098 101.202L174.1 101.2C174.1 101.2 174.1 101.2 174.5 101.5C174.9 101.2 174.9 101.2 174.9 101.2L174.902 101.202L174.906 101.208L174.92 101.226C174.931 101.242 174.948 101.266 174.969 101.295C175.012 101.354 175.071 101.437 175.14 101.539C175.278 101.742 175.459 102.021 175.625 102.32C175.787 102.613 175.951 102.951 176.037 103.267C176.08 103.425 176.111 103.603 176.099 103.782Z" fill="#4A5568"/>
<path fill-rule="evenodd" clip-rule="evenodd" d="M201 91.5C200.602 91.5 200.221 91.658 199.939 91.9393C199.658 92.2206 199.5 92.6022 199.5 93V107C199.5 107.398 199.658 107.779 199.939 108.061C200.221 108.342 200.602 108.5 201 108.5H211C211.398 108.5 211.779 108.342 212.061 108.061C212.342 107.779 212.5 107.398 212.5 107V97.4141C212.5 97.2815 212.447 97.1543 212.354 97.0606L206.939 91.6466C206.846 91.5528 206.719 91.5001 206.586 91.5H201ZM199.232 91.2322C199.701 90.7634 200.337 90.5 201 90.5H206.586C206.984 90.5001 207.365 90.6582 207.647 90.9394M207.647 90.9394L213.061 96.3534C213.342 96.6346 213.5 97.0161 213.5 97.4139V107C213.5 107.663 213.237 108.299 212.768 108.768C212.299 109.237 211.663 109.5 211 109.5H201C200.337 109.5 199.701 109.237 199.232 108.768C198.763 108.299 198.5 107.663 198.5 107V93C198.5 92.337 198.763 91.7011 199.232 91.2322" fill="#E72A2A"/>
<path fill-rule="evenodd" clip-rule="evenodd" d="M204.658 97.1021C205.043 96.7166 205.566 96.5 206.111 96.5C206.656 96.5 207.179 96.7166 207.565 97.1021C207.95 97.4875 208.167 98.0104 208.167 98.5556V99.6111H208.444C208.783 99.6111 209.108 99.7457 209.348 99.9854C209.588 100.225 209.722 100.55 209.722 100.889V103.222C209.722 103.561 209.588 103.886 209.348 104.126C209.108 104.365 208.783 104.5 208.444 104.5H203.778C203.439 104.5 203.114 104.365 202.874 104.126C202.635 103.886 202.5 103.561 202.5 103.222V100.889C202.5 100.55 202.635 100.225 202.874 99.9854C203.114 99.7457 203.439 99.6111 203.778 99.6111H204.056V98.5556C204.056 98.0104 204.272 97.4875 204.658 97.1021ZM205.056 99.6111H207.167V98.5556C207.167 98.2756 207.055 98.0071 206.858 97.8092C206.66 97.6112 206.391 97.5 206.111 97.5C205.831 97.5 205.563 97.6112 205.365 97.8092C205.167 98.0071 205.056 98.2756 205.056 98.5556V99.6111ZM203.778 100.611C203.704 100.611 203.633 100.64 203.581 100.692C203.529 100.745 203.5 100.815 203.5 100.889V103.222C203.5 103.296 203.529 103.367 203.581 103.419C203.633 103.471 203.704 103.5 203.778 103.5H208.444C208.518 103.5 208.589 103.471 208.641 103.419C208.693 103.367 208.722 103.296 208.722 103.222V100.889C208.722 100.815 208.693 100.745 208.641 100.692C208.589 100.64 208.518 100.611 208.444 100.611H203.778ZM206.111 101.167C206.387 101.167 206.611 101.391 206.611 101.667V102.444C206.611 102.721 206.387 102.944 206.111 102.944C205.835 102.944 205.611 102.721 205.611 102.444V101.667C205.611 101.391 205.835 101.167 206.111 101.167Z" fill="#E72A2A"/>
<path d="M24 130.155C24 128.965 24.9648 128 26.155 128H26.4612C27.1267 128 27.7297 128.392 28 129C28.2703 129.608 28.8733 130 29.5388 130H36C38.2091 130 40 131.791 40 134V136C40 138.209 38.2091 140 36 140H28C25.7909 140 24 138.209 24 136V130.155Z" fill="#497FFF"/>
</svg>
